<!-- Пример SVG-спрайта: сохранить как icons.svg и подключать через <svg><use xlink:href="icons.svg#icon-phone"></use></svg> -->
<svg xmlns="http://www.w3.org/2000/svg" style="display: none;">
  <symbol id="icon-phone" viewBox="0 0 24 24">
    <path d="M6.6 10.8c1.2 2.3 3 4.1 5.3 5.3l1.6-1.6c.3-.3.7-.4 1.1-.3 1.2.3 2.5.5 3.9.5.6 0 1 .4 1 1V20c0 .6-.4 1-1 1C9.9 21 3 14.1 3 5c0-.6.4-1 1-1h2.9c.6 0 1 .4 1 1 0 1.4.2 2.7.5 3.9.1.4 0 .8-.3 1.1L6.6 10.8z"/>
  </symbol>

  <symbol id="icon-mail" viewBox="0 0 24 24">
    <path d="M4 4h16v16H4z" fill="none"/>
    <path d="M20 6H4v12h16V6zm-8 6L6 8h12l-6 4z"/>
  </symbol>
</svg>
